<svg width="400" height="400" viewBox="0 0 400 400" fill="none" xmlns="http://www.w3.org/2000/svg">
<rect width="400" height="400" rx="48" fill="#15191D"/>
<path d="M1 153H133V230H1V153Z" fill="#0093FD"/>
<path d="M113.447 176L206.785 269.338L152.338 323.785L59 230.447L113.447 176Z" fill="#0093FD"/>
<path d="M286 285.5C286 306.763 268.763 324 247.5 324L154 324L154 247L247.5 247C268.763 247 286 264.237 286 285.5Z" fill="#0093FD"/>
<path d="M154.499 79.0014L400 79.0014L400 155.112L154.499 155.112L154.499 79.0014Z" fill="#0093FD"/>
<path d="M207.998 132.526L115.157 226L60.9998 171.474L153.841 78L207.998 132.526Z" fill="#0093FD"/>
</svg>
